# xmcd
#
# Track frame offsets: 
#        150
#        16321
#        32270
#        52575
#        67927
#        84058
#        100896
#        121880
#        142540
#        160394
#        176156
#        191939
#
# Disc length: 2828 seconds
#
# Revision: 0
# Processed by: cddbd v1.5.2PL0 Copyright (c) Steve Scherf et al.
# Submitted via: ExactAudioCopyFreeDBPlugin 1.0
#
DISCID=860b0a0c
DTITLE=Roberto Ciotti - Equilibrio Precario
DYEAR=2013
DGENRE=Blues
TTITLE0=No time to go
TTITLE1=Sometimes I feel
TTITLE2=Moondance
TTITLE3=Free bird
TTITLE4=Equilibrio precario
TTITLE5=It's my life
TTITLE6=Hey Joe
TTITLE7=Moscow girl
TTITLE8=Occhi blu
TTITLE9=Bad english
TTITLE10=Scusami luna
TTITLE11=I want you tonight
EXTD=
EXTT0=
EXTT1=
EXTT2=
EXTT3=
EXTT4=
EXTT5=
EXTT6=
EXTT7=
EXTT8=
EXTT9=
EXTT10=
EXTT11=
PLAYORDER=
